<?xml version="1.0" encoding="UTF-8" standalone="no"?>
<!DOCTYPE svg PUBLIC "-//W3C//DTD SVG 1.1//EN"
 "http://www.w3.org/Graphics/SVG/1.1/DTD/svg11.dtd">
<!-- Generated by graphviz version 2.26.3 (20100126.1600)
 -->
<!-- Title: g Pages: 1 -->
<svg width="89pt" height="260pt"
 viewBox="0.00 0.00 89.00 260.00" xmlns="http://www.w3.org/2000/svg" xmlns:xlink="http://www.w3.org/1999/xlink">
<g id="graph1" class="graph" transform="scale(1 1) rotate(0) translate(4 256)">
<title>g</title>
<polygon fill="white" stroke="white" points="-4,5 -4,-256 86,-256 86,5 -4,5"/>
<!-- a -->
<g id="node1" class="node"><title>a</title>
<ellipse fill="none" stroke="black" cx="54" cy="-234" rx="27" ry="18"/>
<text text-anchor="middle" x="54" y="-229.4" font-family="Times New Roman,serif" font-size="14.00">a</text>
</g>
<!-- b -->
<g id="node3" class="node"><title>b</title>
<ellipse fill="none" stroke="black" cx="27" cy="-162" rx="27" ry="18"/>
<text text-anchor="middle" x="27" y="-157.4" font-family="Times New Roman,serif" font-size="14.00">b</text>
</g>
<!-- a&#45;&gt;b -->
<g id="edge2" class="edge"><title>a&#45;&gt;b</title>
<path fill="none" stroke="black" d="M47.3258,-216.202C44.2524,-208.006 40.5384,-198.102 37.1305,-189.015"/>
<polygon fill="black" stroke="black" points="40.3858,-187.727 33.5974,-179.593 33.8315,-190.185 40.3858,-187.727"/>
</g>
<!-- c -->
<g id="node5" class="node"><title>c</title>
<ellipse fill="none" stroke="black" cx="27" cy="-90" rx="27" ry="18"/>
<text text-anchor="middle" x="27" y="-85.4" font-family="Times New Roman,serif" font-size="14.00">c</text>
</g>
<!-- b&#45;&gt;c -->
<g id="edge4" class="edge"><title>b&#45;&gt;c</title>
<path fill="none" stroke="black" d="M27,-143.831C27,-136.131 27,-126.974 27,-118.417"/>
<polygon fill="black" stroke="black" points="30.5001,-118.413 27,-108.413 23.5001,-118.413 30.5001,-118.413"/>
</g>
<!-- d -->
<g id="node7" class="node"><title>d</title>
<ellipse fill="none" stroke="black" cx="54" cy="-18" rx="27" ry="18"/>
<text text-anchor="middle" x="54" y="-13.4" font-family="Times New Roman,serif" font-size="14.00">d</text>
</g>
<!-- c&#45;&gt;d -->
<g id="edge6" class="edge"><title>c&#45;&gt;d</title>
<path fill="none" stroke="black" d="M33.6742,-72.2022C36.7476,-64.0064 40.4616,-54.1024 43.8695,-45.0145"/>
<polygon fill="black" stroke="black" points="47.1685,-46.1853 47.4026,-35.593 40.6142,-43.7274 47.1685,-46.1853"/>
</g>
<!-- d&#45;&gt;a -->
<g id="edge8" class="edge"><title>d&#45;&gt;a</title>
<path fill="none" stroke="black" d="M57.7474,-35.9069C59.7466,-46.3759 61.9966,-59.8759 63,-72 66.9591,-119.836 66.9591,-132.164 63,-180 62.2945,-188.525 60.9727,-197.73 59.5551,-206.083"/>
<polygon fill="black" stroke="black" points="56.0803,-205.63 57.7474,-216.093 62.9689,-206.874 56.0803,-205.63"/>
</g>
</g>
</svg>
