<?xml version="1.0" ?><svg id="Layer_1" style="enable-background:new 0 0 512 512;" version="1.1" viewBox="0 0 512 512" xml:space="preserve" xmlns="http://www.w3.org/2000/svg" xmlns:xlink="http://www.w3.org/1999/xlink"><style type="text/css">
	.st0{fill:#F9F96E;stroke:#231F20;stroke-width:10;stroke-linecap:round;stroke-linejoin:round;stroke-miterlimit:10;}
	.st1{fill:#D7F3F7;stroke:#231F20;stroke-width:10;stroke-miterlimit:10;}
	.st2{fill:#F9F96E;stroke:#231F20;stroke-width:10;stroke-miterlimit:10;}
	.st3{fill:#D7F3F7;}
	.st4{fill:#FFFFFF;stroke:#231F20;stroke-width:8;stroke-linecap:round;stroke-miterlimit:10;}
	.st5{fill:none;stroke:#231F20;stroke-width:10;stroke-linecap:round;stroke-miterlimit:10;}
	.st6{fill:#F9F96E;stroke:#231F20;stroke-width:10;stroke-linecap:round;stroke-miterlimit:10;}
</style><g id="XMLID_289_"><g id="XMLID_278_"><path class="st0" d="M286.8,432.3l-40.6,71.2l-40.6-71.2c-0.4-0.7-0.7-1.6-0.7-2.5V94.8h82.6v335.1    C287.5,430.7,287.2,431.6,286.8,432.3z" id="XMLID_266_"/><path class="st1" d="M287.4,90.1h-82.6V40.8c0-17.9,14.5-32.3,32.3-32.3H255c17.9,0,32.3,14.5,32.3,32.3V90.1z" id="XMLID_267_"/><line class="st2" id="XMLID_275_" x1="204.8" x2="290.2" y1="427.1" y2="427.1"/><polygon class="st3" id="XMLID_276_" points="211.4,432.2 281,432.2 246.2,493.4   "/><line class="st4" id="XMLID_277_" x1="229" x2="263" y1="468.2" y2="468.2"/><path class="st5" d="M287.4,34.9L304,50.7c2.1,2,3.3,4.7,3.3,7.6v112" id="XMLID_274_"/><line class="st6" id="XMLID_288_" x1="222" x2="222" y1="353.1" y2="155"/></g><line class="st6" id="XMLID_290_" x1="204.8" x2="287.4" y1="40.8" y2="40.8"/></g></svg>